<svg preserveAspectRatio="none" width="100%" height="100%" overflow="visible" style="display: block;" viewBox="0 0 24 24" fill="none" xmlns="http://www.w3.org/2000/svg">
<g id="Group">
<g id="Vector">
</g>
<path id="Vector_2" d="M7.39 16.539C6.00146 15.5598 4.96075 14.1639 4.41863 12.5537C3.87652 10.9434 3.86117 9.20235 4.3748 7.58276C4.88843 5.96318 5.90437 4.54919 7.27542 3.54566C8.64647 2.54212 10.3014 2.00116 12.0005 2.00116C13.6996 2.00116 15.3545 2.54212 16.7256 3.54566C18.0966 4.54919 19.1126 5.96318 19.6262 7.58276C20.1398 9.20235 20.1245 10.9434 19.5824 12.5537C19.0403 14.1639 17.9995 15.5598 16.611 16.539L18.694 21.299C18.7275 21.3752 18.7414 21.4585 18.7345 21.5415C18.7276 21.6244 18.7001 21.7043 18.6545 21.7739C18.6089 21.8435 18.5467 21.9007 18.4734 21.9401C18.4002 21.9796 18.3182 22.0002 18.235 22H5.765C5.68192 22.0001 5.60011 21.9795 5.52698 21.9401C5.45384 21.9007 5.39169 21.8437 5.34613 21.7742C5.30057 21.7047 5.27305 21.625 5.26604 21.5422C5.25903 21.4594 5.27277 21.3761 5.306 21.3L7.389 16.539H7.39ZM8.119 10.97C8.33655 11.8345 8.8365 12.6016 9.53957 13.1497C10.2426 13.6977 11.1086 13.9954 12 13.9954C12.8914 13.9954 13.7574 13.6977 14.4604 13.1497C15.1635 12.6016 15.6635 11.8345 15.881 10.97L13.941 10.485C13.8333 10.9184 13.5837 11.3032 13.232 11.5783C12.8802 11.8534 12.4465 12.0028 12 12.0028C11.5535 12.0028 11.1198 11.8534 10.768 11.5783C10.4163 11.3032 10.1667 10.9184 10.059 10.485L8.119 10.97V10.97Z" fill="#09121F"/>
</g>
</svg>