<svg preserveAspectRatio="none" width="100%" height="100%" overflow="visible" style="display: block;" viewBox="0 0 19 19" fill="none" xmlns="http://www.w3.org/2000/svg">
<path id="Vector" d="M4.25 0C4.80812 0 5.36077 0.10993 5.87641 0.323512C6.39204 0.537095 6.86056 0.850147 7.25521 1.2448C7.64986 1.63945 7.96291 2.10796 8.17649 2.6236C8.39007 3.13923 8.5 3.69188 8.5 4.25V8.5H4.25C3.12283 8.5 2.04183 8.05223 1.2448 7.2552C0.447768 6.45817 1.81644e-06 5.37717 1.81644e-06 4.25C1.81644e-06 3.12283 0.447768 2.04183 1.2448 1.2448C2.04183 0.447767 3.12283 0 4.25 0V0ZM4.25 10.5H8.5V14.75C8.5 15.5906 8.25074 16.4123 7.78375 17.1112C7.31675 17.8101 6.65299 18.3548 5.87641 18.6765C5.09982 18.9982 4.24529 19.0823 3.42087 18.9183C2.59645 18.7543 1.83917 18.3496 1.2448 17.7552C0.650425 17.1608 0.245652 16.4036 0.0816645 15.5791C-0.0823227 14.7547 0.00184145 13.9002 0.323514 13.1236C0.645186 12.347 1.18992 11.6833 1.88883 11.2163C2.58774 10.7493 3.40943 10.5 4.25 10.5V10.5ZM14.75 0C15.8772 0 16.9582 0.447767 17.7552 1.2448C18.5522 2.04183 19 3.12283 19 4.25C19 5.37717 18.5522 6.45817 17.7552 7.2552C16.9582 8.05223 15.8772 8.5 14.75 8.5H10.5V4.25C10.5 3.12283 10.9478 2.04183 11.7448 1.2448C12.5418 0.447767 13.6228 0 14.75 0V0ZM10.5 10.5H14.75C15.5906 10.5 16.4123 10.7493 17.1112 11.2163C17.8101 11.6833 18.3548 12.347 18.6765 13.1236C18.9982 13.9002 19.0823 14.7547 18.9183 15.5791C18.7544 16.4036 18.3496 17.1608 17.7552 17.7552C17.1608 18.3496 16.4036 18.7543 15.5791 18.9183C14.7547 19.0823 13.9002 18.9982 13.1236 18.6765C12.347 18.3548 11.6833 17.8101 11.2163 17.1112C10.7493 16.4123 10.5 15.5906 10.5 14.75V10.5Z" fill="currentColor"/>
</svg>