<svg preserveAspectRatio="none" width="100%" height="100%" overflow="visible" style="display: block;" viewBox="0 0 24 24" fill="none" xmlns="http://www.w3.org/2000/svg">
<g id="Group">
<g id="Vector">
</g>
<path id="Vector_2" d="M14.828 7.757L9.172 13.414C9.07649 13.5062 9.00031 13.6166 8.9479 13.7386C8.89549 13.8606 8.8679 13.9918 8.86675 14.1246C8.8656 14.2574 8.8909 14.3891 8.94118 14.512C8.99146 14.6349 9.06571 14.7465 9.15961 14.8404C9.2535 14.9343 9.36515 15.0085 9.48805 15.0588C9.61094 15.1091 9.74262 15.1344 9.8754 15.1333C10.0082 15.1321 10.1394 15.1045 10.2614 15.0521C10.3834 14.9997 10.4938 14.9235 10.586 14.828L16.243 9.172C16.8057 8.60934 17.1218 7.84622 17.1218 7.0505C17.1218 6.25478 16.8057 5.49166 16.243 4.929C15.6803 4.36634 14.9172 4.05025 14.1215 4.05025C13.3258 4.05025 12.5627 4.36634 12 4.929L6.343 10.586C5.86908 11.0481 5.49163 11.5998 5.23256 12.2089C4.97349 12.818 4.83794 13.4726 4.8338 14.1345C4.82965 14.7964 4.95698 15.4526 5.2084 16.0649C5.45982 16.6772 5.83032 17.2336 6.29842 17.7016C6.76651 18.1696 7.32288 18.54 7.93525 18.7914C8.54763 19.0427 9.20381 19.1699 9.86574 19.1657C10.5277 19.1615 11.1822 19.0258 11.7913 18.7667C12.4004 18.5075 12.9519 18.13 13.414 17.656L19.071 12L20.485 13.414L14.828 19.071C14.178 19.721 13.4062 20.2367 12.5569 20.5885C11.7076 20.9403 10.7973 21.1214 9.878 21.1214C8.9587 21.1214 8.0484 20.9403 7.19908 20.5885C6.34976 20.2367 5.57804 19.721 4.928 19.071C4.27796 18.421 3.76231 17.6492 3.41051 16.7999C3.05871 15.9506 2.87764 15.0403 2.87764 14.121C2.87764 13.2017 3.05871 12.2914 3.41051 11.4421C3.76231 10.5928 4.27796 9.82104 4.928 9.171L10.586 3.515C11.529 2.60421 12.792 2.10024 14.103 2.11163C15.414 2.12302 16.6681 2.64887 17.5951 3.57591C18.5221 4.50295 19.048 5.75701 19.0594 7.06799C19.0708 8.37898 18.5668 9.64199 17.656 10.585L12 16.244C11.7213 16.5226 11.3905 16.7436 11.0265 16.8943C10.6624 17.0451 10.2722 17.1227 9.87815 17.1226C9.4841 17.1226 9.09392 17.0449 8.72989 16.8941C8.36586 16.7432 8.0351 16.5222 7.7565 16.2435C7.4779 15.9648 7.25692 15.634 7.10616 15.27C6.95541 14.9059 6.87785 14.5157 6.87789 14.1216C6.87794 13.7276 6.9556 13.3374 7.10644 12.9734C7.25727 12.6094 7.47834 12.2786 7.757 12L13.414 6.343L14.828 7.757Z" fill="currentColor"/>
</g>
</svg>