<svg preserveAspectRatio="none" width="100%" height="100%" overflow="visible" style="display: block;" viewBox="0 0 24 24" fill="none" xmlns="http://www.w3.org/2000/svg">
<g id="Group">
<g id="Vector">
</g>
<path id="Vector_2" d="M4 16H20V5H4V16ZM13 18V20H17V22H7V20H11V18H2.992C2.86069 17.9992 2.73082 17.9725 2.60984 17.9215C2.48886 17.8704 2.37915 17.7959 2.28699 17.7024C2.19484 17.6088 2.12205 17.498 2.0728 17.3763C2.02355 17.2546 1.99881 17.1243 2 16.993V4.007C2 3.451 2.455 3 2.992 3H21.008C21.556 3 22 3.449 22 4.007V16.993C22 17.549 21.545 18 21.008 18H13V18Z" fill="#09121F"/>
</g>
</svg>