<svg preserveAspectRatio="none" width="100%" height="100%" overflow="visible" style="display: block;" viewBox="0 0 24 24" fill="none" xmlns="http://www.w3.org/2000/svg">
<g id="Group">
<g id="Vector">
</g>
<path id="Vector_2" d="M11 21.95V19.938C8.98271 19.6813 7.13885 18.6661 5.84319 17.0988C4.54752 15.5314 3.89728 13.5295 4.02462 11.5C4.15196 9.47041 5.04733 7.56549 6.52874 6.17238C8.01016 4.77927 9.96645 4.00252 12 4C13.9486 4.00003 15.8302 4.71119 17.2917 6C18.7533 7.28882 19.6942 9.0667 19.938 11H21.951C21.449 5.947 17.185 2 12 2C6.477 2 2 6.477 2 12C2 17.185 5.947 21.449 11 21.95V21.95ZM20 18.586L12 10.586L10.586 12L18.586 20H14V22H22V14H20V18.586Z" fill="#09121F"/>
</g>
</svg>