<svg preserveAspectRatio="none" width="100%" height="100%" overflow="visible" style="display: block;" viewBox="0 0 24 24" fill="none" xmlns="http://www.w3.org/2000/svg">
<g id="Group">
<g id="Vector">
</g>
<path id="Subtract" d="M12 2C17.523 2 22 6.477 22 12C22 17.523 17.523 22 12 22C6.477 22 2 17.523 2 12C2 6.477 6.477 2 12 2ZM11.0059 14.9951V16.9951H13.0059V14.9951H11.0059ZM13.2383 6.67285C12.751 6.49583 12.2302 6.42747 11.7139 6.47363C11.1978 6.51984 10.6979 6.67896 10.25 6.93945C9.8019 7.20008 9.41652 7.55646 9.12109 7.98242C9.02757 8.11728 8.94372 8.25856 8.87012 8.4043C8.7113 8.71883 8.59952 9.05612 8.54004 9.40527C8.52928 9.46842 8.51999 9.53223 8.5127 9.5957C8.48182 9.86458 8.48187 10.1362 8.5127 10.4043H10.5625C10.5033 10.1895 10.4919 9.96383 10.5293 9.74414C10.5378 9.69406 10.5491 9.64448 10.5625 9.5957C10.608 9.43072 10.6814 9.27405 10.7793 9.13281C10.7847 9.125 10.7903 9.11707 10.7959 9.10938C10.834 9.05734 10.8751 9.00697 10.9199 8.95996C11.116 8.75442 11.367 8.60887 11.6426 8.54004C11.9179 8.47136 12.2071 8.48219 12.4766 8.57129C12.7461 8.66048 12.985 8.82452 13.165 9.04395C13.3452 9.26362 13.4595 9.53055 13.4941 9.8125C13.5288 10.0943 13.4827 10.38 13.3613 10.6367C13.2398 10.8935 13.0476 11.1107 12.8076 11.2627C12.5677 11.4145 12.2898 11.4951 12.0059 11.4951C11.7408 11.4951 11.4863 11.6007 11.2988 11.7881C11.1114 11.9755 11.0059 12.23 11.0059 12.4951V13.9951H13.0059V13.3506C13.8095 13.1083 14.4997 12.5851 14.9502 11.877C15.2573 11.394 15.4391 10.8468 15.4854 10.2842C15.5109 9.98981 15.5218 9.69345 15.4922 9.40332C15.4711 9.19704 15.4298 8.99343 15.3584 8.7959C15.2936 8.61686 15.2141 8.44375 15.1221 8.27832C14.9635 7.99341 14.7659 7.73008 14.5342 7.49805C14.1679 7.13135 13.7254 6.84984 13.2383 6.67285Z" fill="currentColor"/>
</g>
</svg>