<svg preserveAspectRatio="none" width="100%" height="100%" overflow="visible" style="display: block;" viewBox="0 0 24 24" fill="none" xmlns="http://www.w3.org/2000/svg">
<g id="Group">
<g id="Vector">
</g>
<path id="Vector_2" d="M5.334 4.545C6.36073 3.62528 7.56669 2.92799 8.876 2.497C9.25038 2.96602 9.72566 3.34463 10.2665 3.60467C10.8074 3.86471 11.3999 3.99949 12 3.999C12.6001 3.99949 13.1926 3.86471 13.7335 3.60467C14.2743 3.34463 14.7496 2.96602 15.124 2.497C16.4333 2.92799 17.6393 3.62528 18.666 4.545C18.4475 5.10345 18.3576 5.70394 18.403 6.30189C18.4483 6.89984 18.6278 7.4799 18.928 7.999C19.2276 8.51909 19.6406 8.96495 20.1363 9.30342C20.6319 9.64189 21.1975 9.86426 21.791 9.954C22.0715 11.3029 22.0715 12.6951 21.791 14.044C20.631 14.222 19.561 14.904 18.928 15.999C18.6276 16.5182 18.4481 17.0985 18.4027 17.6966C18.3574 18.2947 18.4474 18.8954 18.666 19.454C17.6392 20.3734 16.4332 21.0703 15.124 21.501C14.7495 21.0322 14.2742 20.6537 13.7333 20.3939C13.1925 20.134 12.6 19.9994 12 20C11.3999 19.9995 10.8074 20.1343 10.2665 20.3943C9.72566 20.6544 9.25038 21.033 8.876 21.502C7.56677 21.0713 6.36082 20.3744 5.334 19.455C5.55265 18.8964 5.64264 18.2957 5.59728 17.6976C5.55192 17.0995 5.37238 16.5192 5.072 16C4.77229 15.4801 4.35925 15.0344 3.86358 14.6961C3.36792 14.3578 2.80238 14.1356 2.209 14.046C1.92831 12.6968 1.92831 11.3042 2.209 9.955C2.80247 9.86526 3.36807 9.64289 3.86374 9.30442C4.35941 8.96595 4.7724 8.52009 5.072 8C5.37223 7.4809 5.55168 6.90084 5.59704 6.30289C5.6424 5.70494 5.55249 5.10445 5.334 4.546V4.545ZM13.5 14.597C13.8439 14.4015 14.1458 14.1398 14.3882 13.8271C14.6306 13.5144 14.8088 13.1569 14.9124 12.7751C15.0161 12.3933 15.0432 11.9947 14.9922 11.6024C14.9412 11.21 14.8131 10.8316 14.6153 10.489C14.4175 10.1464 14.1538 9.84627 13.8395 9.60594C13.5253 9.36562 13.1665 9.18983 12.784 9.0887C12.4015 8.98758 12.0028 8.96311 11.6108 9.01671C11.2188 9.0703 10.8413 9.20091 10.5 9.401C9.81658 9.80165 9.31938 10.4564 9.11689 11.2222C8.9144 11.9881 9.02307 12.803 9.41918 13.4891C9.81529 14.1751 10.4667 14.6767 11.2312 14.8842C11.9957 15.0918 12.8113 14.9886 13.5 14.597V14.597Z" fill="currentColor"/>
</g>
</svg>